<svg width="415" height="137" viewBox="0 0 415 137" fill="none" xmlns="http://www.w3.org/2000/svg">
<path d="M365 43.4998C375.241 49.1892 392.501 62.0298 403 73.4991C411.595 82.8887 415 93.9991 415 93.9991L47 137L0.5 98.9991C0.5 98.9991 14.1185 81.0873 32.5 75.4991C55.5365 68.4958 83.6273 66.7325 86.5 63.4991C91.2845 58.114 91.2863 58.6717 95 52.4991C99.5954 44.8611 103 39.4991 113.5 33.4991C121.576 28.8845 121.527 22.6554 128.5 16.5C143.098 3.61327 177 0 177 0L288 7.49951C288 7.49951 291.108 13.361 292.5 17.4995C293.769 21.2744 294.5 23.4995 294.5 23.4995C294.5 23.4995 303.833 21.7561 312.5 23.4995C326.729 26.3616 356 38.4998 365 43.4998Z" fill="#FF3A3A"/>
</svg>
